/* XPM */
static char *_fb282f8f1774388a154ba6db7b70d3calp90sNewqMKQyTB[] = {
/* columns rows colors chars-per-pixel */
"64 64 256 2 ",
"   c #090709",
".  c #160B07",
"X  c #19120C",
"o  c #0A0714",
"O  c #170D16",
"+  c #0A1017",
"@  c #1A1517",
"#  c #240D08",
"$  c #25150C",
"%  c #31150D",
"&  c #231413",
"*  c #241B14",
"=  c #271A19",
"-  c #351A16",
";  c #2A221B",
":  c #3B2E17",
">  c #37251A",
",  c #191524",
"<  c #181230",
"1  c #261B27",
"2  c #311B2B",
"3  c #1B2226",
"4  c #292627",
"5  c #372926",
"6  c #3A332A",
"7  c #2B2934",
"8  c #372934",
"9  c #2C3335",
"0  c #3A3736",
"q  c #4A1B14",
"w  c #432718",
"e  c #552918",
"r  c #4F3219",
"t  c #68351D",
"y  c #471822",
"u  c #452A27",
"i  c #562B27",
"p  c #47352A",
"a  c #573828",
"s  c #432B35",
"d  c #483935",
"f  c #553B34",
"g  c #673A26",
"h  c #6E392F",
"j  c #38443A",
"k  c #48433A",
"l  c #5B4730",
"z  c #574539",
"x  c #674529",
"c  c #76462B",
"v  c #64592E",
"b  c #674836",
"n  c #794C38",
"m  c #6F5236",
"M  c #151B44",
"N  c #241C49",
"B  c #291D56",
"V  c #331955",
"C  c #2A2649",
"Z  c #342949",
"A  c #393548",
"S  c #2C2354",
"D  c #2C2559",
"F  c #342D54",
"G  c #362B59",
"H  c #3C3657",
"J  c #311F64",
"K  c #372765",
"L  c #38296E",
"P  c #483747",
"I  c #4D334B",
"U  c #48395B",
"Y  c #451E71",
"T  c #493A66",
"R  c #4E346E",
"E  c #442779",
"W  c #673D63",
"Q  c #394B52",
"!  c #4A4746",
"~  c #564847",
"^  c #59554B",
"/  c #4A4659",
"(  c #574958",
")  c #4B5859",
"_  c #595857",
"`  c #664B46",
"'  c #675449",
"]  c #755747",
"[  c #694B51",
"{  c #655756",
"}  c #775B56",
"|  c #57665F",
" . c #786249",
".. c #6F6953",
"X. c #676459",
"o. c #766557",
"O. c #4B4265",
"+. c #4C4468",
"@. c #564969",
"#. c #52546F",
"$. c #5B5568",
"%. c #584A73",
"&. c #6E526B",
"*. c #655868",
"=. c #685A73",
"-. c #755C76",
";. c #696768",
":. c #796868",
">. c #6B766E",
",. c #787569",
"<. c #696577",
"1. c #756979",
"2. c #797776",
"3. c #803D35",
"4. c #8B5434",
"5. c #8D623D",
"6. c #AA613C",
"7. c #875947",
"8. c #8C5B56",
"9. c #AC5A45",
"0. c #846648",
"q. c #966749",
"w. c #8D6C56",
"e. c #977557",
"r. c #AF704F",
"t. c #866A68",
"y. c #8A7668",
"u. c #96746E",
"i. c #866A79",
"p. c #857978",
"a. c #A4796B",
"s. c #77887E",
"d. c #93886F",
"f. c #898679",
"g. c #94877A",
"h. c #AD8A6E",
"j. c #B89763",
"k. c #C7956E",
"l. c #CFA065",
"z. c #CDA675",
"x. c #53288E",
"c. c #652698",
"v. c #752BA6",
"b. c #625583",
"n. c #756C85",
"m. c #6B728A",
"M. c #7A7588",
"N. c #797B96",
"B. c #6F7EA8",
"V. c #747CA4",
"C. c #877A87",
"Z. c #93728B",
"A. c #857C95",
"S. c #9363A1",
"D. c #9A37C5",
"F. c #73858C",
"G. c #798798",
"H. c #7583A9",
"J. c #7387A9",
"K. c #6C85B8",
"L. c #778AB4",
"P. c #7A94BB",
"I. c #7DA3B3",
"U. c #6D92C8",
"Y. c #7697C4",
"T. c #76A3D4",
"R. c #77A4D4",
"E. c #8A8589",
"W. c #978787",
"Q. c #979587",
"!. c #878697",
"~. c #978996",
"^. c #879397",
"/. c #999696",
"(. c #A6898A",
"). c #A6978B",
"_. c #A79798",
"`. c #B29492",
"'. c #9CA596",
"]. c #AFAA94",
"[. c #A7A79A",
"{. c #BAA699",
"}. c #8689A6",
"|. c #978AA5",
" X c #8795AD",
".X c #9897A7",
"XX c #8899B6",
"oX c #979AB3",
"OX c #A79CAD",
"+X c #8AA7B9",
"@X c #96ADB5",
"#X c #98A6B8",
"$X c #A8A8A8",
"%X c #B8AAA8",
"&X c #ADB1AC",
"*X c #B7B6A8",
"=X c #A8A5B8",
"-X c #A9B4B8",
";X c #B8B8B8",
":X c #C29C9B",
">X c #CAAD96",
",X c #C8AFA5",
"<X c #C9B8A8",
"1X c #C5BAB5",
"2X c #B1C7BF",
"3X c #C8C5B6",
"4X c #D0C5B0",
"5X c #DDD7B5",
"6X c #D9D5B9",
"7X c #8698C4",
"8X c #88A6CB",
"9X c #98AAC6",
"0X c #97B9C9",
"qX c #8EB5D1",
"wX c #A7B9C7",
"eX c #AEB3CC",
"rX c #B8B8C6",
"tX c #C2BEC9",
"yX c #C0BAD1",
"uX c #99C4CC",
"iX c #99C5D8",
"pX c #A9C5CB",
"aX c #BBC4C8",
"sX c #A9CAD5",
"dX c #B7CBD7",
"fX c #B0D5D4",
"gX c #B9D6D7",
"hX c #B3DBDC",
"jX c #B6D0E0",
"kX c #C7C5CA",
"lX c #CED0CF",
"zX c #D9D7C6",
"xX c #C9C7D4",
"cX c #C6DBD9",
"vX c #D6D5D9",
"bX c #E4D5C5",
"nX c #DAE2CE",
"mX c #CCE3D9",
"MX c #DAE7D7",
"NX c #D4E5DB",
"BX c #E7E6CA",
"VX c #E4E7D4",
"CX c #F4F0D1",
"ZX c #CDC9E5",
"AX c #C7D9E3",
"SX c #DCDAE3",
"DX c #E4DAE9",
"FX c #D2E3E7",
"GX c #E8E5EA",
"HX c #F0F1EE",
"JX c #EDEBF3",
"KX c #F1EEF6",
"LX c #F5F3F6",
"PX c #F6F4F9",
"IX c #FAF8F8",
"UX c #FDFCFC",
/* pixels */
"K L L x.E x.J J B B D B B N B D K K D D D L Y Y S R v.c.c.x.R D H K R R L K G G D F F F C F G G G F G F G H F H T @.$.=.n.-.=.@.",
"Y L x.x.x.E J J B B S D S S B D K K D D G Y Y J Y v.D.v.v.x.x.x.L L E R T G F F F F F F F F F F F H F H G F U / =.C.C.C.C.n.<.=.",
"E E x.c.c.Y K B eXKXKXJXJX.XN S N C F D D V V V Y D.D.v.x.x.x.L R x.R G F Z #.#.O.S Z F F G G H F H H m.A.=XtXSXi.C.Z.E.C.A.C.1.",
"E Y x.x.x.x.J D rXUXUXUXUX.XF xXLXLXyXS S PXKXKXHXDXS.I KXSXmXxXxXA.ZXKX=XC PXIXGX$XxXxX/ <.m.!..X=XM.JXUXUXUXIX1.p.W.~.~.W.A.M.",
"E E L E x.E J S rXUXUXJXJX!.GXUXUXUXUXSXZ UXIXIXLXLXDXZ IXIXUXUXIXOXUXUXUXA JXUXGXxXUXUXE.UXUXUXUXUX&XPXUXUXUXIXC.Z.~._._.~.~.~.",
"E J B J L L L D kXUXIXA < %.UXUXkXSXUXUX$.UXIXKXGXIXUX$.vXIXUXUXUX/.UXUXPXn.JXUXJXxXUXPX!.UXIXUXUXUX&XLXUXUXkXkX(.~.~._._.~._.|.",
"J J B B D K K D yXUXPXH N n.UXUXm..XUXUX;.IXUXGXtXIXIXZXS SXUXIXZ 7 IXUXUXSXvXUXKXxXUXUXp.tXHXUXJX1.$.LXUXUXM.W.(.~.~.~._.OX.X.X",
"B M M B B D D D kXUXUXvXlXM.UXUX=.n.>.UX$.UXUXGXtXIXIXeXF SXUXIXH C UXUXUXUXvXUXKXlXUXUX*.$.GXUXPX<.$.LXUXUXvXkXE.~.~..XOX=X.XoX",
"B B N N N C S S tXUXUXUXLX2.UXUX$.M.;.vX;.UXUXJXGXIXPXZ A GXUXIXO.Z UXUXUXIXUXIXKXlXUXUX;.;.DXIXPX<.$.IXUXUXUXlX~.~.|..XoX=XoXoX",
"J B N N N N N C rXUXUXGXDXM.UXUX<.E.FX_ ;.xXVXUXUXUX-XI A vXHX1X( 1.JXIXvXUXUXUXPXvXUXUXi.1.GXUXLX1.<.PXUXIXJXkXA.~.~.|..X=X=X#X",
"B N N N N N N S tXUXIX/ S M.UXUXM./.UXkX7 n.PXPXUXUXrXF H SX4Xd.a ' *.IX~.PXUXUXPXvXUXUXp.2.GXUXLX1.1.PXUXUXE.N.A.|.~..X.XoX=X9X",
"B B N N M N N S kXUXIXT B %.UXIXrXvXUXUX! 1 xXGXDXUXGXU U vX*X> r d ( vX=XtXUXUXKXvXUXUXW.p.GXIXPXM.1.PXUXUXE.N.A.!.!.|..XoX=X9X",
"B B B B S C D S aXUXUXO.S Z GXIXUXUXIXSX2 2 DXDXlXUXUXU U SX<Xa.h.- I DXtXn.UXUXKXvXUXUX~.W.GXUXIXF.M.IXUXUXGXDXV.A.A.|. XoX7X9X",
"J J B J K G G S tXUXUXO.F F / vXIXPXlXP F 2 =XOXC.UXIXxX/ kX4Xx q.n } ;.=X$.vXJXDXvXUXUX)./.HXUXPX!.M.PXUXUXUXIXA.V.}.}. XoX9X9X",
"L L K L T T G C tXIXKX@.H +.H F Z 0 U U @.O Z 7X&.( ( *.=.$.8.h.4.4.e.-.%.=.$.*.=.1.C.E.(.`.lXvXxXV.A.GXHXKXPXGXm.V.A.XXXXXXoX9X",
"R R R R T T T H U $.<.#.O.O.T U T O.U ( / P O T ;X( *.*.*.=.*.{.4.7.i &.-.1.n.=.1.C.C.W.$X~.!.N.V.V.V.B.B.H.}.|.V.V.B.V.XXXXXX9X",
"b.b.=.%.R %.O.@.@.$.O.+.O.O.T O.@.+.+.@.( &.* > d { { *.{ =.*.*.q.e } _.%X1.n.1.C.Z.W._..XA.}.V.H.B.K.K.K.B.B.N.V.B.B.L.XXXXXXoX",
"R R R T @.T @.%.+.O.T O.+.+.@.@.@.*.( @.*.{ p $ u f :.&.:.:.p.,.a.h y.h.] (.i.C.p.~._._.=X X}.B.L.K.B.U.K.J.B.V.V.V.B.L.L.XXXXoX",
"Y T T H H H +.@.O.+.T +.@.@.$.$.*.*.} :.{ :.t.# = > t.W.p.W.(.' l f w.e.] :XZ.W.~..X_. XoXoXXXU.K.K.U.B.K.V.V.N.V.H.H.H.L.L.XXXX",
"U T T T +.O.O.%.%.+.+.@.@.#.$.$.*.&.} _.p.).d.p - e.b h.).(.y. .' e.k.9.7.(._._.%X&X=X#X*X>X>X;XU.U.U.K.B.B.B.V.H.H.L.L.}. X7XXX",
"@.R T @.#.+.@.%.@.+.@.@.@.$.*.*.*.:.`.).).).g.O X w b >Xz. .z a l k.k.r.h ] %X%XrXrXeXaX>Xl.5.g.7XU.U.L.K.L.H.L.L.L.L.L.Y.XXXX7X",
"R T @.$.@.%.%.=.@.@.$.$.*.=.=.=.:.g.>X{.`.).6 O @ @ > 5.k.z.e.t j.>Xr.7.q [ ;X1XrXrXsX1Xj.q.n n ~.7XU.U.Y.U.U.Y.Y.P.P.L.L.Y.XXY.",
"@.&.*.%.&.&.-.%.$.%.*.=.<.<.1.1.Z.{.{.].>X].$ d l - @ . x 6.j.j.z.r.w.# > _.rXrXdXdXdX%Xe u.r.h [ XXT.T.T.T.U.T.Y.P.P.P.P.P.Y.7X",
"i.&.*.-.&.Z.%.=.%.=.=.=.<.C.n.i.{.1X>X*X>X*X{.,Xb q . 5 p w c 4.9.7..   =XrXaXrXdXjXdX2Xq r.6.g [ =XT.T.T.T.T.Y.oXn.P.P.P.Y.Y.8X",
"t.t.t.(.W.n.-.b.b.<.<.1.C.C.C._.<X<X4X4X1X<X4X<Xa 5 ; . 5 . . . r O   8 rXrXdXdXjXjXjXcX8.8.4.i u :.8X8XR.R.9XE.$X/.OX7XT.R.8X8X",
"u.Z.t.(.i.-.n.n.n.1.<.M.A.~._.,X%XtXzX4X3X4X4X4X^ X 0   .           < yXyXkXyXdXdXdXdXrXn q e.a.t.} :.kXiXR.#.| oXG.oX8X8X8XR.8X",
"W.W.* 1 A.n.m.n.n.n.n.A.~./._.$X$X;XrX-X;X3X3X3X).;   * X X X X . o 1.1XxXxXxXdXgXAXcXaX8.m >X} z w.x g.FXqXm.F.uX0XOXjXqXR.qXqX",
"&.M.9 , A oXn.M.n.M.#.n.~.~.~.!..X#X#X=X-X;X1X;X2Xz . ' x : # % * 1 W.p.kXxXcXgXdXgX;X4X>X`.' g m # > ..M.qXwX^.-X&X;.M.qXqXqXqX",
"-.M.F.! 1 A.A.M.N.+.C M b.!.!.!. X+X#X9XwXwXpX;X2X-X^ ^ p : m r w ~ ^ ^ A M.cXhXZXaX[. .y.~ p g > & - % A qX8Xf.[.C._.;XyX9XqXqX",
"<.N.!./.P , <.A.N.9 8 O +.N.!.}. X+X8X0X0XpXsXpXwXiX*Xe.v r 4.c 7.] d 7 ) #.FXAXAXzXo.: k & w i % * > w &XeX-X2.p.2.@.*.b.eXiXiX",
"-.M.N.!.;.O , n.M.` 0.h i.A.G. XXXqXqXqXpXsXsXuXiXpX].4.5.c 4.6.r.q.m 0 I.F.pXFXcXd.; $ ; . # # & . s w.{ | ! ) _ _ *.-.S.S.eXiX",
"=.M.N.!.p.p P A 1.W.e.h i.N.}.XX8XqXiXiX0X9Xm.+XiX&X5.x r e 3.6.4.r.q.6 +XG.M.lXd. .k ! 5 * . . . ` { ' 3  XpXs.| ^ :.Z.S.eXeXiX",
"t.n.C.N.E.;.j . ( `.} i 5 9 .X XqXiXiXiXE.5 ; 8 $. .v X $ $ a 4.4.4.4.b 4 0 P bX<Xz k 6 5 * $ X & p > & d eXsX9X) ) *.A.=XdXsXsX",
"t.i.M.N.F.E./.4 s = ! { O 9 2.=XqXiXiXsX| > # = 1.m t X . X % c t t c m f.-Xd.(./.k p 5 > X d ~ ( ! O & &.#XjXsX@X^.^.eXdXdXsXsX",
"i.i.i.C.A.!.}./.^ O 6 ~ _ _ ;.$.I.iXiXhX^.> . X / p $ X $ X * x t t c x g.AXtX8.v  .: ; k { 6 X 1 yX;.d M.dXjXjXsXsXsXsXsXsXsXsX",
"Z.a.Z.M.N.G.^.^.$Xp = d { ( 0 G.iXsXsXgXg.h.h g ~.8 . X * 9 fX: t t t e y.cXFXg.j.v : ; X d h ~ 1 f tXAXgXAXjXgXfXsXsXfXfXsXdXsX",
":X:XZ.`.G.G. X X@X' u > f { ( eXsXsXsX;Xu.4.t q `.s . $ 5 @XsXG.w e e x d.zXcXd.> # p 5 = % q % . 2 ~ cXAXAXAXjXgXfXfXaXfXdXfXfX",
":X:X:X`.^.J.XX+X@X].u > 5 f ( *.GXmXG.:.p 7.4.i Z.1 ; > E.gXsXfX; r t e d.%X>.: @ 5 = * ; & - . # O d E.AXAXgXcXcXgXfXfXdXfXfXgX",
"`.,X:X`..XI.I.+X+X&X' d : z [ ~.&XE.<.= z a 3.i u 1 ! 1 ) fXhXfXF.p a e ] [.{ ..4 +   + 5 4 6 x i > g d.NXFXAXAXcXgXgXfXfXgXgXcX",
"Z.:X:X_..X+XI.I.0X@X*Xl u d ` /.p.[.*.4 6 u i u 5 5 4 O + F.hXfXhX6 u > r /.,...9 +       4 v w > w m d.lXeX-XmXcXcXcXfXgXmXaX2X",
"h.`.:XOX.XoXI.+X0XuXaXd.a ~ z :.*X,.0 = = 6 @ 2 @ 4 O * 2.gXhXhXhXQ.5 : $ ( ;...9 @     + 3 9 4 7 p ~ / m.m.0XmXmXmXmXgXgX2X| ) ",
"h.(.`./.oX+XI.0X0XuXpXQ.r d ' g.f.lX2.! & = 9 4 4 X @ 8 ZXgXfXhXhXmX9 k ) <.$X..0 = o o +.3 9 A #.m.N.) >.NXNXNXmXmXmXmXmXfX>.f.",
"Z.(.:X%X'.+XqX0XuXuXsXf.z k ^ p.).:.p 5 4 d 4 6 1   1 s eXfXgXhXmXgX@Xk 9 X.f.,.~ 5 + C AX<.G.F.<.H 4 0 &XmXNXNXFXmXNXmXmXcX>.f.",
"`.{.,X1X&X@X0X+XuXuXpXf.z j d { d > h i * 3 Q @   . % 5 m.gXgXmXhXgXmX| ; = ,.E.,.2.C.AXxX&X>.9 * 3 7 vXNXmXFXMXNXNXNXmXmXnX'.E.",
"W.`.C.1X4X3X@XuXuXuXfXf.k ! ' _ ,.} r.4.% 3 F.Q   . r u '.gXgXmXmXmXcX2X0 k ) kXGXGXZXVXHXy.^ 5 3 4 7 aXNXMXNXNXNXMXmXnXBXCX].f.",
"Z..X|._.<X4X3X2X2XfXgX[.o.y.p.;.2.`.r.4.- 4 Q Q @ # h f gXfXgXlXnXgXmXcXF.G.aX'.*X2.~.HXCXCX..0 @ 3 1 -XMXMXMXMXNXMXMXnXBXCX].s.",
"E.W.p.).,X,X>X;XkXcXlXQ.k r d ! { :.k.r.e.' 0 X O d h d /.fX;Xf X /.-X@X2._ j ^ s.>.*XVXCXCX3Xk 3 3 4 /.MXMXMXMXMXMXnXCXCXCX].>.",
"E.{ ^ f.{.{.{.<XzX6X3Xz w $ X . 1 k {.n a.w.t.Q.} f 5 5 p :.b i r | @XnX*Xj k k d Q.zXBXCXCXVX'.9 , 4 >.VXMXVXMXMXMXnXnX4Xg.f.>.",
"C.2.^ W.%X,X{.%X<Xg.*X6 > $ X X   @   : f ] b ' i ~ 1.} ` ] h q a ' nXBXVXf.z z  .'.zXVXBXMXMXBXX.4 4 ^ VXVXnXnXMXnX6X2X'.Q.f.s.",
"p.^ k o.' y.%X<X3X[.k 4 8 0 = * X X X X = . . o 7 ) #.5 h e g 2 = : BXBXzXg.,.....'.BXBXVXVXBXCXQ.6 0 9 >.&X'.[.nXVX*X[.Q.E.].f.",
"~.1.:.z  . .%X*X3X3X[.; d 6 5 @ * * * $ u 1 ;.^.$.) A 6 u 6 4 7 $.$X6X6X5X<Xd.X...d.&XnXBXVXBXBX5X! ! j ! &X].'.zX3X'.[.Q.Q.,.,.",
"Z.:.' ] ] ] {.*X1X3X3XX.0 6 = O 6 4 * ; = 5 { $.9 4 4 6 k k ! ~ { _ ,.].*X4X].y.d.,.].nXBXzX5X6XBXf._ ^ ^ ;.[.[.3X*X'.'.'.f.,.,.",
"&.f b ] m } ).*X*X3X3XQ.! ; ; 3 j { k >.j z z 6 0 k d ! ^ X.X.d ( ;.;.p.C.[.*XQ.f.f.].BXbX6X5X5X6X6X,.X.^ X.[.].*X&X*X*X[.Q.f.f.",
"y.' y. .] o.,.Q.].*X*X,._ ! 0 0 Q.2.;.aX2XtXE.^.Q.$X;X&X:.o.o.> P D O.:.C.(./.$X*Xf.].BXbXbXbX6X6X6X'.,.>.>.[.*X*X].[.*X[.g.g.d.",
"t.{ ].q.0.....y.Q.2X&X;.E.Q.X._ >.2.f.d.[ 1.P A 1.1X,X{.y.p ' > A C < I I ` } `.:X<Xg.(.-.I _.zX5XbX6XQ.,.s.[.*X*X].$X[.[.Q.Q.Q.",
"C.X.d.e.0.5.o.o.f.G.2.t.Q.<X,.,.u.y.].].s [ I i.a.e.7.0.7.z d % 7 N 1 I s y s i y > f e.n.{ :.W.;XlXkX$XE.f.[.*X*X*X[.Q.Q.Q.Q.f.",
"~.F.d.z.h.h...} >._ e.q.] >Xh.r.r.k.a.m ' ] 8.8.7.]  .u. .z p * 7 < 1 P 2 8 8 I I p * a |.. t.:.Z U %.n.|.|.OXeX-X[.u.E.E.f.f.f.",
"S.|.).z.l.j.h.y.$.A 0.4.4.9.r.r.6.e.7.x `.b w.,.x c c n ] u 6 * 7 < < 8 1 < 1 & O & O 5 |.= b P I [ ( Z V K K T F 0 t.&.Z.(.(.C.",
"{ { ' l.l.l u p ) 9 4.7.b 9.9.` u m v r b h.l r r g g c n > 5 @ 1 < , 7 , , = 2 = X ~ > Z.d f :.s 5 s T R %.R R $.I o.i.Z.Z.S.Z.",
"u p v j.e.> & 5 ! z n 4.h 4.8.s p v t r g  .> % - > ; > u = > * 1 < , 1 # - - % - & o ~ t.} b { 1 2 2 I I U ( c.&.[ :.Z.&.@.S.S.",
"5 s  .j.a k d 6 : p l l g 9.4.d : l c r.5.b * = * * * . 5 X = $ , , O 8 s I s w - &   & [ f z f = s ~ I R I W &.&.` o.&.I 2 I &.",
"5 s ^ j.v ; > 5 > u . ; x r.e.> : x 5.m x r - - 5 u p p 6 X X ; @ o o 7 I I 2 Z.[ s 1 8 ( s d 8 O ( 1.2 8 2 2 V I 8 } ( I I I W ",
"> > 6 5.e.X 5 > 5 6 a b w.e.l 5 : l v r l > 5 b w w q : > . O > , o o = # 2 8 W %.O o 2 I 5 p 5   d &.P o o O O o O :.[ 5 8 < Z ",
"b m 6 v  .l > 4 = 5 a r 0. .> = * r x w u * $ > : - : % ;   . 1 @     * s 8 I 8 I o O @ 7 8 p 5   5 @.U < < 2 .   . p 1.O I G K "
};
