/* XPM */
static char *_7397ae169b74466b54895c22f99e06eXTCQWhuuFnNVNKcH[] = {
/* columns rows colors chars-per-pixel */
"114 64 256 2 ",
"   c #0F0F13",
".  c #150E13",
"X  c #0F1118",
"o  c #121115",
"O  c #1B1617",
"+  c #12131A",
"@  c #2A0F17",
"#  c #251B18",
"$  c #302519",
"%  c #171927",
"&  c #0C1935",
"*  c #151C35",
"=  c #261A27",
"-  c #2E182B",
";  c #18252F",
":  c #182439",
">  c #29252B",
",  c #362C2F",
"<  c #28273A",
"1  c #43271C",
"2  c #463733",
"3  c #064234",
"4  c #555538",
"5  c #141746",
"6  c #171A56",
"7  c #2D1C4D",
"8  c #172647",
"9  c #152E52",
"0  c #282A47",
"q  c #36354A",
"w  c #2F2E53",
"e  c #273659",
"r  c #0E0F6B",
"t  c #120E65",
"y  c #120E6C",
"u  c #0E1165",
"i  c #0F116C",
"p  c #111265",
"a  c #11126C",
"s  c #181A6C",
"d  c #0F0F74",
"f  c #0F0F7A",
"g  c #130D74",
"h  c #130E7C",
"j  c #180E79",
"k  c #0F1173",
"l  c #0E127C",
"z  c #0E187C",
"x  c #111374",
"c  c #161977",
"v  c #12147C",
"b  c #271C6B",
"n  c #182D6C",
"m  c #262569",
"M  c #2D346F",
"N  c #45334B",
"B  c #4D3D62",
"V  c #06514F",
"C  c #384158",
"Z  c #06685C",
"A  c #055868",
"S  c #324772",
"D  c #046868",
"F  c #057377",
"G  c #534A4B",
"H  c #494F72",
"J  c #6A6A61",
"K  c #4B8B3E",
"L  c #06817C",
"P  c #569850",
"I  c #8E856E",
"U  c #0F0F80",
"Y  c #130E83",
"T  c #130F8B",
"R  c #180E89",
"E  c #0F1382",
"W  c #0F1886",
"Q  c #121384",
"!  c #171986",
"~  c #12128C",
"^  c #121A8B",
"/  c #150F94",
"(  c #190F96",
")  c #0F1994",
"_  c #121293",
"`  c #1B1795",
"'  c #111A94",
"]  c #14149B",
"[  c #19129C",
"{  c #13199C",
"}  c #2E1A8A",
"|  c #162691",
" . c #272E8C",
".. c #1515A2",
"X. c #1915A4",
"o. c #141CA3",
"O. c #181AA7",
"+. c #161BAB",
"@. c #191BAC",
"#. c #0018BD",
"$. c #171EB2",
"%. c #181DB2",
"&. c #1522AC",
"*. c #1925AB",
"=. c #0536A6",
"-. c #1623B2",
";. c #1A23B5",
":. c #182AB5",
">. c #1C26B9",
",. c #1D2BBC",
"<. c #1A33BA",
"1. c #232DB8",
"2. c #2636BA",
"3. c #54308E",
"4. c #1A4893",
"5. c #2F4F8C",
"6. c #03738E",
"7. c #0B4EB0",
"8. c #2D57AC",
"9. c #2168A6",
"0. c #3167AF",
"q. c #4B5289",
"w. c #4F6591",
"e. c #637495",
"r. c #4E53AD",
"t. c #4A6DAF",
"y. c #6979AC",
"u. c #001CC2",
"i. c #0026C9",
"p. c #132EC5",
"a. c #0034CD",
"s. c #1C36C3",
"d. c #013AD5",
"f. c #013CD5",
"g. c #2733C7",
"h. c #2334C5",
"j. c #273AC8",
"k. c #154DCE",
"l. c #0143D5",
"z. c #0343DA",
"x. c #044CDC",
"c. c #084BDA",
"v. c #0453DD",
"b. c #0957DD",
"n. c #2645C9",
"m. c #3346C6",
"M. c #2E57CB",
"N. c #294AD3",
"B. c #3346D3",
"V. c #2856D6",
"C. c #3458D8",
"Z. c #0E6AD1",
"A. c #2968DC",
"S. c #3467DA",
"D. c #3776D7",
"F. c #074FE0",
"G. c #0555E0",
"H. c #0B54E1",
"J. c #055BE1",
"K. c #0B5CE2",
"L. c #135BE2",
"P. c #1559E2",
"I. c #0663E2",
"U. c #0C63E3",
"Y. c #0C6AE5",
"T. c #1364E5",
"R. c #1A67E6",
"E. c #146BE6",
"W. c #1B6BE8",
"Q. c #0E72E6",
"!. c #1874E7",
"~. c #1C73E9",
"^. c #1D7BEA",
"/. c #246AE4",
"(. c #226DEA",
"). c #3569E2",
"_. c #2473EB",
"`. c #2A75E8",
"'. c #237CEA",
"]. c #2C7BED",
"[. c #3676E5",
"{. c #327DEE",
"}. c #4358D1",
"|. c #4A6CD8",
" X c #647CDE",
".X c #467AE4",
"XX c #5375E2",
"oX c #058792",
"OX c #0690AA",
"+X c #08A4B4",
"@X c #5584BA",
"#X c #7289B0",
"$X c #2393DD",
"%X c #2582EC",
"&X c #2C84EC",
"*X c #258AED",
"=X c #2C8AED",
"-X c #3383EE",
";X c #3987EA",
":X c #328BEE",
">X c #3491EF",
",X c #3A96EC",
"<X c #3989F1",
"1X c #2E92F0",
"2X c #3494F1",
"3X c #3B94F1",
"4X c #359AF2",
"5X c #3B9AF2",
"6X c #528DD1",
"7X c #6D9ACE",
"8X c #488AE9",
"9X c #4995EC",
"0X c #5095EF",
"qX c #4394F3",
"wX c #439BF3",
"eX c #4B9BF4",
"rX c #6D8CE5",
"tX c #55A6EC",
"yX c #49A5F5",
"uX c #53A3F5",
"iX c #59AAF7",
"pX c #5AABF7",
"aX c #5CB4F8",
"sX c #67ABEE",
"dX c #62ADF6",
"fX c #64B3F8",
"gX c #69B7F9",
"hX c #73BBFA",
"jX c #77BDFA",
"kX c #7BC3FA",
"lX c #939CB7",
"zX c #8B9ACA",
"xX c #95A7CB",
"cX c #A7B5CD",
"vX c #8B9AE4",
"bX c #92AFEE",
"nX c #A6B6ED",
"mX c #BCC6D9",
"MX c #83C5FB",
"NX c #8AC9FB",
"BX c #98D2FB",
"VX c #B3D2F7",
"CX c #B8E4FD",
"ZX c #C4CDDC",
"AX c #CAD6F0",
"SX c #D4DCF7",
"DX c #D3E4F4",
"FX c #DBE6FA",
"GX c #E0E6EF",
"HX c #E7ECFA",
"JX c #E4F3FE",
"KX c #ECF4FD",
"LX c #F0F3F7",
"PX c #F2F5FB",
"IX c #F4FAFE",
"UX c #FEFFFF",
/* pixels */
"z z z z z k k k x x x x z z n i i i c i x i i i i i i i i i i i r u u u u u u u u u u u u p u u u p u u u u u u u u s u u n u u u u u u u u u u p t t t t t t t t p t t t t t t t t t t t t t t y y b y y y y y j b y j y y j j j j ",
"W z W z l z z x x z x x z p c c c i i i z i x i i i i i i i i i i i r r c u u u i u u u p s u u u u u u u p u u u u u u u u u u u u u u u u t u m s t u t u t t t t t t t t t t t t t t t t t t y y y y j y j y y j j j j j y j j j ",
"z ! z z v v l v l l z z z z z s x x x i i i i i i c i x k k r d i a c i i i i i a i i i u i i i r i i u u p u u u u u u u u u u u u u u u u r u p u u r t t p t p u t t t t t t t t y t t t t y y y j b y y g g j j j y y j j j j j ",
"W W z W z v l l z x x c s x z x k x k a i i x i i x i i r r d r d x M l i i i x i i i i i i i i i r i i i i i i u m s s i i u i i r r i r u t r y y u y a y a y t t t y y t t t t y t t y y y y y y y y y g j g j y j j j j j j Y j ",
"W z E z E z z v z c v c z c x x x c k k d a i i i x y i y d y d x c S z k k i k k k k d x k d y i d r i i r p m B J cXlXq.c i i a i a i a y y r a r r r y r a y y t y y y t y s y y y y y y y y y y y y j y j j g j j j j j j j h j ",
"W W W E E E Q v W ! v z z z k z l x k k g k g d i x d i y y y d x S S s k k k k k k x d x l d d d i d d i d M G J 4 I I J G M i a y i y a y r y i y g i i y y y y y y y y y y j y y y y y y y y t j y g y j g g j j j h j j j j h h ",
"! Q W v E E Q v z z v z v z x z c l l g k k g k k i g y y y y y x q C m d d k d h d d l v x d d d d d d d m 2 K 4 1 2 K P 4 q a i k i i a k i i y a y i i i x x y y y g g y y y y y g y y g y y j j y g g g j g j h h j j Y R j h h ",
"W W Q Q W E Q Q ! ! ! z v v v v c v l k l x g x c g y g d y d y  .q q m d d d d d d d d d f f d d f d d d < 2 P P 2 G J P 4 w a i d g g d y d i k x d i d g y x y g y g y y g y d y d g y g g d y y j g j g g j j h j Y j j Y j Y Y ",
"~ W ~ E Q Q Q Q ! ! ! z v v v v l l ! ! x x j x c g g g g g y g M q G e x x g d d d d f d f g f f d f f x m , $ G $ # 2 G 2 w x c c x d d d d k d d d d d y d d g g g g f g g g x g d d g g g g g d g d g h h h h h h R j h Y Y E Y ",
"~ ~ E ~ ~ Q R Q ! ! z W W ! ! v v v v z l h x v v h g h ) g g d M N B w x g h f f h f h f h f f h f h f h s , , > # + % < 2 w x  .c h g g d d d d d d d d f g g d d g d g d d g v d f g g j g h g h h h h h v h h h j Y Y Y Y Y Y T ",
"~ ~ ~ Q T Q ~ ^ W ! W ! W W E Q Q l Q z v l v z v h g g | ^ g g b N N q b g g h h f f h h Y f h h f f f f x , , > % = < G 2 m g f f f d f d f f f f f d f f g f g f f f f f f h h f h g h h j h h h h f h h h Y h Y Y h Y Y Y Y E T ",
"~ ~ T ~ ~ ~ ~ W ^ ^ ^ ! ! Q Q Q E v Q v l E v Q v h h j =.' g g v m N 2 M j f j f Q f U U U h Y E h h h h h 8 , 2 , $ 2 N , a f f f f f f f f l z f f f f d f f f f f f f f f f h h f h c v h v f h Y h h Q Y Y Y Y Y R Y Y T T T ~ ",
"~ _ T ~ ~ ~ ~ ~ ~ ^ ~ W W Q Q Q W Q v v W z E v v h h h h h h j h 7 1 - B M } j Y f h h h Y h Y Y U Y h z |  ., 1 # O # 2 2 b f l l ^ | W z l U l l l f E E f Y h Y l f U Q l h f h f h ! ! h Y h h h Y Y Y Y Q Y U T U T T T T T T ",
"_ _ _ _ ~ ~ ) ) ) ) ^ W ^ ^ W ^ Q ^ ^ W W W W v h v Y h h g s s b N @ @ - B vXr.h Y Y h Y h Y h h Y Y Y z n S , $ O O O $ < z h ^ 8.0.w.5.| E U U l U U U U U U Y U U U E Q Y Y Y Q Y Y Y v h h Y Y Y Y Y Y Y Y T T T T T T T T ~ T ",
"] ] ' _ ~ ) ) ) ) ^ ) ~ ^ ^ ~ ^ ^ ^ W W W ^ Q Q Q E Q h h h s w < - @ @ @ H VXy.! j Y Y h Y h Y Y h Q Y z n 9 : O O $ # % : 7.=.0.5.9 9 9 A W U U U U U U U T U T U T T T T U Q Q Y Y Y Y Y Y Y Y Y Y Y Y T Y Y T T T T T T ~ ~ ~ _ ",
"` | ' _ _ ) ) ) ) ) ) ^ ) ) ~ ~ ^ ^ ^ ^ ^ ^ ^ ^ Q Q E Y U Y f h 5 - 1 @ @ w w.3.} R j Y Y Y Y Y Y Y Y h | n 9 & % % + % % 8 | 7.4.8 8 9 9 n ~ E E ~ E E T U T ~ T T ~ T T T T Q R Y Y Y Y Y Y Y Y Y Y Y Y T T T T T _ ~ ~ _ ~ _ _ / ",
"{ { { { ) { ) ) ) ' ) ) ) ~ ) ~ ^ ' ^ ^ ^ W ^ ^ W ~ E T f Y U U j y 7 @ # < H 7 b  .R R ` } R j R Y R s 8 : : * & % % % & 8 u n 4.4.4.5.n 9 ! ~ ~ E T T T T ~ ~ T ~ ~ T ~ T Y T T Y ~ ! ^ U T T T Y Q R ~ T T T T T _ T _ _ ~ ] _ _ ",
"{ { { { ) ) ] ) ) ) { ' ) ) ) { ^ ' ' ' | ) ^ ^ W ~ ~ E Y U Y Y R R } N @ % C q N S q. .M q.3.} Y R  .8 ; $ + % % % % & : C e 8 n n 4.0.9.n ^ ~ ~ ~ T ~ _ T ~ ~ _ ~ T T T T T T T T ~ ' ` T U T T ~ ` T ~ T T T _ _ _ / / _ _ ] _ ] ",
":.o.) ' ) ] ] ) ' { { ' ' ) ) | ' ) ) ) ` | ^ ) ) W ~ ~ T T U Y Y j S N - O % q M b H 0 > 8 7 b ` ! < % $ 2 $ # + + % % ; , , , & % * n | | W ^ ~ ~ ~ ~ _ _ _ ~ _ T T / T T T T ~ ~ ~ ~ T T T ~ T ~ ` T T T ` ` _ ` ` ] _ _ [ ` ( _ ",
"&.*.&.' ..{ ..{ { ` { { { { ) ) ) ) { { ) ) ) ) ~ ~ ) ~ ~ T E T T b , 7 - - = 7  .b M 7 . . % M w.q.q # , $ 1 $ # o X o O O # $ % X + * n 7.8.` ~ T _ _ _ _ _ / _ / T / T T T T ~ T T T _ ~ _ T / T ~ / _ / _ _ _ ] ` [ [ _ [ O.[ { ",
"o.*.o.o.{ { { ] { { { { { { { ' ) { ) &.{ ) ) { *.~ ) ~ ~ T T T T R m b ! w N q m } / j X . X * 0 H H G 0 < 2 $ # # # O O O # # O   X % r. XxX}._ _ / ~ _ _ _ _ / / / T _ T _ / ~ _ _ _ _ _ _ _ _ _ _ _ ( / _ / / ] / / ] ] [ ..[ [ ",
"o.=.o.o.o.o.o.o...{ { { { { { { ] ) ) M.n.) ' { { ) ) ~ ~ _ T T T R R ( ( b q < w ( ( R 5 .   5 ~ p < q 0 H H H > O o = ; e S e % + % 0 q.y.xXxXr.{ ( _ _ / _ / / T / / ~ ] ` _ _ _ _ _ ~ ) _ _ _ / _ / _ / ] / ] / ..] [ [ { [ ..X.",
"o.o.&.o.o.o.o.o.{ ....{ { { { ] { { / <.A.o.{ ) ) ] ) _ _ _ _ _ T ( ( ( ( ( m 0 w ! ( ( Y %   5 ( s O + O ; q H H H w q q = 8 8 8 m S q.r.t.5.J H r.X.[ / / / / / ( ( _ _ :.&._ _ _ _ _ _ :.o.' _ / / ] ] _ ] / ] ] ] [ ..[ ........",
"+.&.o.&.&.o.o...o.......{ o.{ { { ] { { { &.{ { ] ] ] _ ) _ _ / ( R ( ( ( ( R 7 , b ( ( ( 6 + & s 5 . . + + + % < q q - - - %   X * % = q e e q 0 q.} h.{ / ] ( / ( _ ( _ k.<._ ] ] ] _ o.o.k.k.../ ] _ ] ] ] ..[ ] ........X.@.7.*.",
"&.*.+.+.+.&.+.O.o.o...o.{ o.o.{ ..X.[ ..] M.M.' { { ] ] ] ) _ / / / ( ( ( ( ( R w w ` [ ` n 6 9 5 +     o       o o + O = > < 0 < ; % < q q 0 + % 0 *.<.*.M.O.( [ ] ] ( ( $.:.] ] ] ] ] ] ..-.+.o.,.X.( ] ] ..] ..] ....X.X...<.0Xm.",
"+.-.&.&.&.&.&.O.+.o.o.+.&.&.*.&.:.7.{ :.S.M.9X*.{ o.{ { ] ] / / ( ( ( [ [ :.O.[ ` c M ! 6 5 & * 8 &   X                 % < w q S q.w.q - < - = 5 ! *.O.<.n.[ [ [ [ [ / ] ..] ] ] ] ] ] ] ] ] ,.R.7...[ ] ........] ..X.X.X...h.0X.X",
"-.&.&.-.-.-.+.@.@.@.+.-.*.*.&.&.*.<.O.:.S.n.|.8X:.:.o.] ] [ [ [ [ [ [ [ ( A.M.X.[ [ c * o + + X + % % + o o o             X + % % < w < = - - - 7 7 ` [ ( [ X.[ [ [ X.....] ] ....] ........] ..&...............,.n.+.X.X.+.+.+.S.uX",
"-.-.-.s.<.&.@.@.@.@.*.*.-.&.*.&.&.&.*.S.8.M.M.:.{ ..&.:.......1.2...[ [ [ 2.;XS.1.2.| %     o X + + + X X O o o O O             + p z * > > = = - b { ..[ X.@.X...X.X.....................................+.....|.rX%.+.@.@.+.%..X8X",
"s.<.;.A.D.k.k.;.@.@.;.*.*.;.-.&.&.*.&.n.,X9X9X-.+.&.<.:.+.+.@.1.M.1.;.X.[ X.M.uXn.8XD.e 0 e S e S e %   + X X o # # # + o o X + p { [ 5 % = = > = e n s ` X.X.X.X.X.X.X...+.o...@...+.......+.....+.X.X.@.@.o.+.m.8.+.@.%.@.%.|.iX9X",
"].`.k.:X4X>X`.,.%.%.@.&.%.&.&.-.*.*.&.&.<.D.A..X.X[.|.}.}.M.8.*.[ X.;.O.@.X.*.n.2.[.6XS 5.t.t.t.8.e * X + + X o # # $ O + + + p ....+.W * : % * * = ; 6 X.X.O.O.X.@.X.X.$.:.-.-.%.p.>.%.+.+.....O.2.2.O.@.:.s.n.+.$.+.%.%.%.%.M.C.M.",
"D.2X1X4X&XV.8.s.<.;.,.;.;.V.A.s.&.&.-.-.&.-.j.AXIXPXKXPXLXPXnX,.@.;.2.j.2.@.n.&.M.kX@Xw.t.t.0.0. .: : 9 : : & & ; ; % ; * 8 e | -.}.|.|.w.n 8 n { ! 7  .1.O.@.@.%.@.X.1. XrXvXbXnXZXnX1.+.+.+.+.@.@.@.@.@.$.,.,.$.%.%.%.%.%.h.M.;.%.",
"A.4X4X1XV.2.V.].&XV./.k.,.N.A.7.-.:.:.&.;.&.2.SXUXUXUXUXUXUXnX,.m.bXSXHXSXnX8Xn.8.VXGXDXGXGXZXmXH : w.ZXZXcXxXlXlX#Xe.w.lXmXDX|.,.cXUXUXHXt.#XxXvXvX|.A.j.g.j.j.m.}.}.XXLXUXUXUXUXUXSXg.+.%.%.+.@.@.&.-.+.n.p.<.$.%.%.%.%.g.C.h.;.>.",
"&X2X=X1X=X&X4X4X4X1X_.V.;.%.;.>.-.:.:.-.&.2.j.SXUXUXUXUXUXUXbXB.AXUXUXUXUXUXFX.XN.SXUXUXUXUXUXUXGXw.y.IXUXUXUXUXUXUXKXcXUXUXUXbXs.bXUXUXKX6XGXUXUXUXvXVXAXAXSXGXHXKXHXbXPXUXUXUXUXUXSXj.%.@.%.%.%.%.$.$.s.A.[.D.n.,.1.M.C.,.g.n.V.N.",
"=X=X=X%X1X5X5X4X4X4XA.s.1.>.;.>.:.:.:.;.;.:.j.SXUXUXUXPXGXHXrXvXUXUXUXUXUXUXUXnXV.SXUXUXUXUXUXUXUXZX#XUXUXUXUXUXUXUXPXcXUXUXUXGX8.zXUXUXKXrXSXUXUXPXnXUXUXUXUXUXUXUXUXnXKXUXUXUXUXUXSXg.%.%.%.%.%.%.%.$.n.wXS.n.C.V..XdXM.;.h.iX8X.X",
"'.^.%X&X1X>X1X=X=X=Xj.>.>.>.>.>.>.:.,.:.;.;.n.SXUXUXIX Xj.m.C.SXUXUXPXnXPXUXUXHX0XJXUXUXPXAXIXUXUXPXxXGXHXUXUXUXUXUXIXcXIXUXUXUX#X#XUXUXKX8XFXUXUXIXBXUXUXUXUXUXUXUXUXbXKXUXUXPXAXVXbXh.>.%.%.%.;.%.$.p.>.A.iX;XfXaX0X.Xh.h.;XkX.Xj.",
"=X].'.'.%X^.%X'.%X*Xn.,.,.>.>.,.>.,.>.:.>.,.j.SXUXUXIX Xp.%.}.IXUXUXHXXXFXUXUXUXBXJXUXUXLXw.ZXUXUXUXxXS e.LXUXUXPXmXcXlXUXUXUXUXZX#XUXUXPX XFXUXUXIXnXPXUXUXUXUXIXSXAXbXKXUXUXSXN.j.>.>.>.%.>.>.>.>.>.>.>.D.aXiXdXkXNX9XS.8XkXfX<X{.",
":X].].-X'.E.~.%X%XA.k.,.,.,.,.,.,.,.,.,.,.<.n.SXUXUXUXrXB.B. XUXUXUXSX|.SXUXUXUXCXJXIXUXJXw.cXUXUXUXlX9 S IXUXUXSXS 9 e.UXUXUXUXLXxXPXUXPX XFXUXUXUXNXkXNXJXUXUXHX|.P..XPXUXUXSXC.g.1.>.>.%.>.>.>.>.>.>.>.j.8XfXgXkXkXkXkXaXaXyX5X3X",
">X=X&X:X'.E.I.Y.~.A./.h.h.,.,.,.p.,.,.,.,.,.N.SXUXUXUXHXFXAXvXUXUXUXSX).SXUXUXUXDXJXUXUXKX6XZXUXUXUX#X& S PXUXUXDXe & e.UXUXUXUXUXSXUXUXPX XFXUXUXUXkXyXaXIXUXUXHX}.p.|.IXUXUXPXnXVX XV.s.h.>.>.>.>.>.>.,.n.k.9XaXkXdXgXkXyXyX5X3X>X",
"4X<X=X3X%XW.Y.Q.%X^.^.!.V.,.,.,.,.,.h.s.s.s.N.SXUXUXUXUXUXFXbXUXUXUXFX).SXUXUXUXCXJXUXUXIXVXKXUXUXPX#XS w.KXUXUXGXe & e.UXUXUXUXUXUXUXUXPXrXFXUXUXIXkXyXaXJXUXUXKX0X`.tXIXUXUXUXUXUXNX%X`.N.,.,.g.>.h.>.h.:X/.N.9XaXD.tXaXyX5XwX5X2X",
"4X3X2X3X*X!.Q.%XQ.Q.Q.%XR.V.j.h.h.h.h.s.,.s.N.SXUXUXUXUXUXJXbXUXUXUXSX3XFXUXUXUXDXJXUXUXUXUXUXUXUXmX8.,X7XIXUXUXAXe & e.UXUXUXUXUXUXUXUXIXdXFXUXUXUXkXyXaXIXUXUXKXaX4XaXIXUXUXUXUXUXBX4X1XV./.j.>.1.g.g.N.5X3XV.S.8XV.wXwX5X3X5XwX3X",
"<X'.~.^.^.Y.Y.Y.Q.Q.%XQ.%X%XV.s.h.h.j.s.j.s.V.SXUXUXUXKXHXAXbXUXUXUXFXqXSXUXUXUXCXJXIXUXUXUXUXUXJXq.n yXkXIXUXUXGXe & e.PXUXPXGXUXUXUXUXIXkXJXUXUXUXkX5XaXKXUXUXKX8X2XgXIXUXUXUXFXFXkX4X1X&X=Xj.g.>.g.j.N.2X,X-Xj.N./.3X<X:X2XwX5X<X",
"%X^.T.Y.Q.Y.J.J.v.Q.*XI.I.Q.`.n.j.h.h.h.h.s.N.SXUXUXUXrX3XwXhXUXUXUXFX0XSXUXUXUXVXJXUXUXUXUXUXUXLXH n ,XkXIXUXUXGXe & e.UXUXLXzXLXUXUXUXIXkXJXUXUXUXdX2XuXKXUXUXJX}.V.aXIXUXUXFX|.C.).=X1X1X=XV.g.g.g.V.N.N.&X4XV.).:X:X:X-X3XwX3X1X",
"^.'.W.I.Y.Q.I.J.b.$X*XY.I.Y.%Xk.j.h.h.h.g.g.C.SXUXUXIXrX=X1XiXKXUXUXKXfXJXUXUXUXkXJXUXUXIXJXUXUXIXlXM 8.kXJXUXUXGXS & e.UXUXUX#XmXIXUXUXIXkXJXUXUXUXdX'.|.JXUXUXHX).N.uXIXUXUXFXS._._.=X1X=X=X'.g.g.V.&X`.A.:X,X].2X=X].'.-X-X=X2X<X",
"E.^.^.K.U.J.J.G.I.%XQ.I.Y.%X!.n.j.j.g.g.g.g.B.SXUXUXUXsX:X=X4XDXUXUXIXVXIXUXUXHXaXFXUXUXIXDXUXUXUXZX5.4.dXIXUXUXJX,X9.7XUXUXIXy.#XUXUXUXUXNXJXIXUXIXfX^.|.HXUXUXHX}.h.XXPXUXUXJXiXyX2X=X%X1X1X=X).V.'.=X=X>X>X4X2X4X2X%X~._._.&X].'.",
"W.'.%XU.J.G.x.x.I.v.l.x.I.^.(.N.j.j.g.j.g.j.C.SXUXUXUXjX1X*X*XbXUXUXUXUXUXUXUXbX).FXUXUXIXBXJXUXUXKXt. .7XIXUXUXJXaX5XkXUXUXUX#XS DXUXUXLXbXJXUXUXUXfX*X.XKXUXUXPX}.g.XXPXUXUXUXJXJXCX=X~.*X*XY.^.*X!.!.^.%X=X>X4X2X2X=X'.W._.]._._.",
"J.Y.Q.U.J.F.x.x.l.l.l.a.x.Y.'.].B.j.j.j.j.j.C.SXUXUXIXgX%X~.^.*XVXUXUXUXUXUXAX}.).FXUXUXIXgXAXUXUXUXzX5.t.IXUXUXJXyX4XjXIXUXLX#XS xXUXUXUXsXFXUXUXUXfXW..XKXUXUXHX|.g.XXIXUXUXUXUXUXFX*XQ.Q.Q.I.I.!.Q.Y.Y.%X%X=X2X*X=XE.~.~.W.~._.~.",
"U.G.J.E.I.G.x.x.l.l.l.l.v.v.~.=XB.B.j.B.C.).C.SXUXUXUXdX~.W.W.!.:XbXCXDXDXBX3XN.C.NXVXBXVXtXzXGXGXGXlXS 5.bXBXBXkX3X3XuX7Xw.e.C 8 H mXmXcX6XDXJXKXJXdXA..XIXUXUXPX|.j.0XPXIXUXIXUXUXFX*XE.!.'.I.I.I.I.v.v.Y.Q.~.'.^.'.Y.W.].&X_.W.~.",
"_.U.J.E.T.I.v.v.b.v.b.v.l.v.~.{.B.B.j.B.`.<X8XFXUXUXJXeXW.Y.Y._.1X^.Q.!.*X1X1XV.N.-X4X4X4X$Xe S M 5.9 8 9 4.4XyX4X:XwXyX$Xe + ; ; ; e e e 0.iX0X.X.X<XV.[.bXbXbXbX.XN.eXAXSXFXJXKXIXDX%XQ.=X*XK.I.I.I.v.v.v.U.U.U.^.E.E.~.].<X3X].=X",
"qX-XW.Y.'.].Y._._.E.K.F.z.v.Y.=XC.C.C.C.2X&X2XBXMXgXwXE.U.W.W.=X5X'.E.U.%X2X>X[.C.;X5X:X:X0.% & + * * * 9 5.&X3XiXpXiXwX3XS . X X % % & n M.{.).j.B.).B.C.B.C.N.N.).C.{.1X'.~.'.3XeXqXY.Q.'.~.J.J.E.U.v.x.v.J.J.G.Y.E._.]._.].:X-X*X",
"-X].{.]._.(.T.W.T.H.G.G.x.G.Y.'.S.[.<X;X=X^.=X2XE.%X~.U.U.%X=X'.4X-X].~.!.=X:X5X5X5X:X_.-X8.8 e 0.5.0.6X;XyX3X3XaXgXaXwX<X9 o   X   & 9.`.).C.j.j.B.B.j.j.B.B.[.C.C.C.`.=XY.J.I.E.~.Y.J.Y._.^.T.J.I.Y.I.v.G.I.G.G.U.E.W.~._.~.'.W._.",
"].E.~.<X<X-X].(.(.T.H.z.a.l.U.&X;X:X&X=X_.T.'.=XT.^.U.E.'.:X~.T.&X3X&X3X].&X-X,X5XyX:X].<XyXiXuXiXaXyXyXwXuXiXaXuXfXfXyX8X: + X   8 k.%X`.[.C.B.B.B.B.B.B.B.S.,X<X2X).).%XU.G.U.T.W.Y.J.W.4X2XU.J.v.v.U.J.J.K.J.I.E.W.T.K.R.].].(.].",
"qX-X<XqXjXdXqX{._.T.x.d.a.a.x.&X5X:X_.T.E.U.~.'.J.G.J.U.!.^.W._._.-X:X3X&X:X,X5X5X5X5X-X,XqXyXeXqXqXyXaXiXiXfXfXgXkXgXiXS + o   8 k.Q.'.].:X[.B.B.C.j.}.B.C.&X:X=X1X2X:X%XW.J.W.~.~.W.W._.].^.W.I.v.v.v.J.J.G.J.K.T.E.K.T._.qX2X{.].",
"iXuXiXgXMXjXqX{.T.x.a.a.a.l.Z.-XqX:X~.K.T.K.J.W.E.K.K.U.I.~.'.]._.(.W.&X'.[.;X,X3X5X:X].].].].<X<X-XuXiXfXgXiXuXfXkXkX6X* X o & 9.%X*X~.%X2X[.B.C..X[.C.[.`.=X&X!.'.&X1X=XY.L.-X{.~.T._.R.U.T.~.~.I.U.K.G.K.F.F.G.T.W.K._.]._.-X{.{.",
"fXgXfXeXgXiXqX{.W.b.f.i.l.~.~.=X5X:XE.G.U.G.F.K._.K.G.G.J.~.5X-X(.T.T.^.'.&X:X,X3XwX,X]._._.(._.{.-XiXiXiXMXhXiXfXhXsXe X X X 4.!.E.K.G.U._.-XS.<X<X:X=X=X`.%X'.U.Y.T.~.^.W.W.:X&XW.T.W.(._.(.W._.E.].T.J.J.G.G.G.K.W.].].W._._.{.{.",
"fXMXhXiXjXjXeX{.`.L.c.f.b.c.l.E.=X=XK.x.F.G.F.F.I.K.K.G.G.~.=XW.E.b.b.K.E.^.=X:X,X3X'.R.T.T.T.T._.{.qXuXiXfXfXfXfXtX5.% o   5 b.x.l.l.c.v.U.=X9X<X=X].'.].E.'.E.J.b.x.b.U.~.<X<X].{.<X<XqX3X{._.-X{.<X].W.W.R.K.K.W.W.K.R.(.].].].{.",
"jXNXMXgXdXuXqX{.{.L.l.l.l.x.c.b.T.W.K.F.x.G.K.H.T.R.T.K.G.G.F.x.U.v.x.b.E.U.%X'.&X:XR.K.K.T.K.U.~.{.<XeXqXqXeXuXtXD.: % + o : b.v.l.l.l.c.T.=X,X<X<X=XW.~.T.~.~.!.b.v.b.K.J.'.{.{.3XeXeXfXiXqX-XeXeX<X]._.U.K.K.T._.K.G.P.].{.].{.qX",
"NXjXfXeX<XqX{.P.F.z.F.z.z.v.L.K.T.T.T.F.F.K.T.T.W.(.W.T.F.z.d.d.l.v.T.'.b.c.%X!.^.;XZ.v.b.K.G.G.b.^.3X9X5XyXiXeX3X8.; % + O w k.x.l.a.f.v.b.=X,X_.%X=X!.!.T.'.:X:Xb.v.U.b.c.E._.eXhXdXiXgXhXhXdXuXjXgXqX].L.L.R.W.(.H.J.W.(.{.qX{.qX",
"hXeX{.]._._.P.H.H.L.L.z.d.R.&Xb.z.z.F.F.F.H.F.H.W.(.(.R.H.F.z.d.a.U.!.b.i.a.l.Z.=X=XL.x.c.G.G.F.v.k.7.OX+X$X+X+X$X9.9 = % ; M 4.a.a.a.a.x.L.=X&XT.Z.`.'.=X&X:X,X'.L.c.b.b.T.~.`.eXjXjXMXMXNXMXgXqXgXNXuX{._.-X_.(.W.R.W.W.W._.qXqX{.",
"uXuX{.P.F.P.P.{.R.H.F.z.c.-X_.b.z.d.z.z.F.H.K.W.(.(.(.P.H.z.d.d.l.l.a.i.#.#.#.l.%X%Xb.x.G.J.K.K.Z.6.oXoX+X+X+XOX+XOXV % % : M S 6.v.l.l.l.b.'.!.%X'.^.'.=X'.R./._.R.b.b.b.T.~./.qXfXMXNXNXNXMXgXuX9XjXiXuX<X{.<X].(.(._.{.{.{.{.(.(.",
"hXeX{.(.F.H.(.).(.P.H.z.c.c.l.l.z.z.d.d.z.P.(.(.(.{.].T.F.z.d.d.a.i.i.#.#.#.#.a.b.E.Y.b.b.Z.$XOXoXoXZ F 6.oXOX6.OXoX+ O % 0  .5.OXOXoX7.l.c.E.R.!.'._.E.&X;XR.R.].`.P.R.R.L.T.E._.qXgXNXMXjXjXMXhXqXqX<X{.{.eXuX].].qX<X{.{.qX_.(.(.",
"8XqX{.R.z.F.F.P.{.).(.c.d.a.a.a.d.z.z.z.z.z.P.P.P.].W.F.F.z.d.d.i.i.i.u.i.#.#.#.a.b.Z.Z.oX+XoXL D D Z Z Z D F D D F ; + O % < w oX6.F F 7.b.H.c.c.R.T.L.{.;X_.R._.]./.P.L.L.b.`.{.qXgXbXMXfXfXMXjXfXqXqX{.<XdXgXqXuXdXiXqXeXqX{.<X<X",
"(._.{.(.(.{.(.(.(.(.P.F.f.d.d.d.d.z.z.z.d.d.F.F.z.F.H.z.z.d.d.d.i.i.i.i.#.#.#.7.6.oXoXL F Z Z Z L F A F 6.oXD A F A V ; o o X % Z Z D oX6.Z.H.F.P./.A.L.;X;X(.L.b.L././.L.L.v.R.{.uXgXjXjXgXfXkXjXhXdXeXeX<XqXeXuXjXhXhXdXeXqXeXqX.X",
".XqX{.(.).qX(.(.(.P.z.d.d.z.z.c.d.P.(.P.H.F.H.F.d.F.F.F.d.z.z.d.d.i.i.i.#.#.=.F oXF D D V 3 V Z Z Z A D F A V V 6.6.D ; ; X + : D D V Z oX+X+XI.R.`.A._./.P.R.P.c.k.P.P.P.P.P.P.{.eXuXdXhXhXkXNXNXkXdXgXfXfXfXkXMXbXMXfXuXeXqX{.`.P.",
"iXdXeX(.P.(.(.F.P.P.F.F.z.H.P.F.d.P.{.(.P.F.H.F.F.F.z.F.z.d.z.d.d.d.i.i.#.#.7.oXF A A Z 3 V D Z V V V V V 9 9 8 A 6.oXV V : V D L oXF F L oXOXOX$X!.A.R.P.k.P.P.c.b.c.P.d.c.c.(.{.<X<XeXpXdXgXNXNXkXbXjXhXMXkXkXMXgXdXqX.X{.P.P.F.z."
};
