/* XPM */
static char *f38fd3dade2c43ff83cb6c294af171c332dYq1hm3TOUbrd0[] = {
/* columns rows colors chars-per-pixel */
"64 64 239 2 ",
"   c #010301",
".  c #0B0302",
"X  c #0C0E0A",
"o  c #080B07",
"O  c #150B0A",
"+  c #190C0B",
"@  c #140706",
"#  c #0E110D",
"$  c #13120E",
"%  c #19140F",
"&  c #0E1211",
"*  c #141512",
"=  c #1A1512",
"-  c #161A15",
";  c #1A1C16",
":  c #1C1D19",
">  c #151B1A",
",  c #2B0602",
"<  c #2C0906",
"1  c #270403",
"2  c #310D0A",
"3  c #35120E",
"4  c #39150E",
"5  c #221715",
"6  c #231916",
"7  c #241E1A",
"8  c #291E1B",
"9  c #2B1D16",
"0  c #361410",
"q  c #391611",
"w  c #3B1A14",
"e  c #381A14",
"r  c #1D211C",
"t  c #1D2017",
"y  c #3E3C03",
"u  c #3C3808",
"i  c #24221D",
"p  c #29221D",
"a  c #272A1B",
"s  c #39271B",
"d  c #36341B",
"f  c #2C301F",
"g  c #1D2523",
"h  c #1F2924",
"j  c #1E2A2A",
"k  c #242621",
"l  c #2C2423",
"z  c #242A24",
"x  c #2A2B24",
"c  c #2E262B",
"v  c #232C2A",
"b  c #2C2E2A",
"n  c #342524",
"m  c #322B24",
"M  c #3A2E24",
"N  c #332B2A",
"B  c #3A2728",
"V  c #2E3125",
"C  c #2D332C",
"Z  c #27332C",
"A  c #343224",
"S  c #3C3323",
"D  c #33342B",
"F  c #3A352B",
"G  c #3B392C",
"H  c #363A28",
"J  c #2E3531",
"K  c #2F3931",
"L  c #263333",
"P  c #313631",
"I  c #333A33",
"U  c #3C3C34",
"Y  c #3C3F38",
"T  c #373B36",
"R  c #2B2E31",
"E  c #421E14",
"W  c #413E05",
"Q  c #4C291A",
"!  c #482517",
"~  c #4D3217",
"^  c #442B2A",
"/  c #453628",
"(  c #533E2C",
")  c #4A2D30",
"_  c #453D36",
"`  c #583236",
"'  c #653D22",
"]  c #67383D",
"[  c #3C433A",
"{  c #3B4338",
"}  c #46430C",
"|  c #49450E",
" . c #46440A",
".. c #494610",
"X. c #4B4A13",
"o. c #4C4B17",
"O. c #54521D",
"+. c #534E18",
"@. c #5B5A2B",
"#. c #595726",
"$. c #43433A",
"%. c #434A3D",
"&. c #484238",
"*. c #584737",
"=. c #635D25",
"-. c #6B4024",
";. c #6B642D",
":. c #6C6733",
">. c #67401F",
",. c #743D45",
"<. c #3D4B43",
"1. c #394947",
"2. c #3E534D",
"3. c #3E5853",
"4. c #454B43",
"5. c #4A4D43",
"6. c #474F49",
"7. c #4B5244",
"8. c #475248",
"9. c #55544C",
"0. c #59554D",
"q. c #5B5C4E",
"w. c #535648",
"e. c #435752",
"r. c #5D5C52",
"t. c #565651",
"y. c #514F43",
"u. c #664D45",
"i. c #625C55",
"p. c #68514B",
"a. c #5D644E",
"s. c #5E6352",
"d. c #66635A",
"f. c #69655C",
"g. c #6C695E",
"h. c #636555",
"j. c #6B7359",
"k. c #7E7A55",
"l. c #74645A",
"z. c #6A6861",
"x. c #7D756B",
"c. c #7D7A6E",
"v. c #767469",
"b. c #7D7B72",
"n. c #736D65",
"m. c #817C5A",
"M. c #827A6E",
"N. c #837268",
"B. c #837C72",
"V. c #8F7F72",
"C. c #917873",
"Z. c #848275",
"A. c #8C8276",
"S. c #84837A",
"D. c #8B867B",
"F. c #8B897D",
"G. c #96887C",
"H. c #94917E",
"J. c #888366",
"K. c #8D8A81",
"L. c #888881",
"P. c #938D82",
"I. c #9F8E83",
"U. c #939384",
"Y. c #9B9484",
"T. c #9D9986",
"R. c #95968B",
"E. c #9D9A8C",
"W. c #9A978B",
"Q. c #9D9991",
"!. c #A19B8C",
"~. c #A59687",
"^. c #A49D92",
"/. c #ABA68F",
"(. c #A6A194",
"). c #AEAB94",
"_. c #AEAB9B",
"`. c #A9A497",
"'. c #B0AC96",
"]. c #B2AD9B",
"[. c #B6A696",
"{. c #B3B09D",
"}. c #BDB599",
"|. c #B6ADA0",
" X c #B5B3A3",
".X c #BAB5A4",
"XX c #B6B6A9",
"oX c #B9B6A9",
"OX c #B8B9AD",
"+X c #BAB8A7",
"@X c #B9BCB2",
"#X c #C0B99C",
"$X c #C3BBA6",
"%X c #C3BFB3",
"&X c #CCC3AD",
"*X c #CBC6B5",
"=X c #D3CCB5",
"-X c #D4CDBB",
";X c #D5C9B5",
":X c #DAD2BB",
">X c #E4D6BD",
",X c #DCD4C3",
"<X c #D8D2C3",
"1X c #D5CDC0",
"2X c #E4DBC4",
"3X c #EADDC5",
"4X c #E4DDCB",
"5X c #E5D9C6",
"6X c #E5DED2",
"7X c #EBE3CC",
"8X c #EAE2C8",
"9X c #F1E5CC",
"0X c #F3E9CE",
"qX c #E7E1D3",
"wX c #ECE5D3",
"eX c #EEE9D5",
"rX c #EEE9DB",
"tX c #ECE5DA",
"yX c #F1E6D3",
"uX c #F3EBD4",
"iX c #F8EDD5",
"pX c #F3ECDB",
"aX c #F9EEDB",
"sX c #F9F1D7",
"dX c #F6F1DC",
"fX c #F9F2DD",
"gX c #F6F0D6",
"hX c #EEECE2",
"jX c #F4EEE2",
"kX c #F6EFE9",
"lX c #F6F1E4",
"zX c #FBF4E3",
"xX c #FEF8E5",
"cX c #F5F3EB",
"vX c #FAF4EA",
"bX c #FEFAEC",
"nX c #FFFEF3",
"mX c #FEFFFB",
"MX c #F9F7F1",
/* pixels */
"W.oXoXXXXXXXXXXXOXXXXXXX X].].].'.)././.].].'.].].{.OXOXXXXX XXX XXX X|. XXXXXXX@X@XXXXX].].].{.].].].{. X XXXXX X X X@XOX@XOXR.",
"XXlXcXlXkXkXhXhXjXjXtXwXwXwXqXwX>X3X3X3XyX4XwXwXwXtXtXkXpXhXrXpXjXtXpXjXtXjXjXkXcXcXhX6X7X6X4XwXwX4XwX3X7XrXhXhXrXrXrXhXcXcXcXXX",
"OXcXcXmXkXMXmXmXmXnXbXbXbXbXbXpX4X3X0X7X7XxXzXzXbXnXnXnXmXmXbXjXjXvXbXqXbXnXmXmXmXmXbXbXbXzX7X7X7XgX5XuX0XsXbXnXbXnXnXmXmXMXcXOX",
"OXcXmXXXr.B.R.K.K.K.K.F.K.F.F.-XyX9X$Xr.z.F.K.A.F.S.K.S.K.S.%XzXlX,Xl.l.G.G.C.G.I.C.G.C.C.[.uX8X3Xc.d.H.F.H.U.U.R.R.R.R.`.MXcXXX",
"XXnX6X$.X = O O % = O + + * . W.iX>X0.  * o o o & # o o $   n.aX3XN.1 < 1 1 1 < , , 1 , @ *.8X8XY.z Z h z z r z r h z r [ hXcXXX",
"XXMXMXi.= c l F N P N N i l 6 !.sXwXc.* r x i i L b ; g : * b.aXeX~.2 e q 0 e Q 4 2 w E 2 p.yX8X}.T K I { w.1.{ 7.{ I J 8.tXcXXX",
"@XhXmXz.O l c c c N N l c 7 = ^.lXxXD.# g v b D z V x j k # b.iXlX[.1 w ! E e ' ! E ^ E , u.wX9X=XI C K { { 3.<.8.<.P C 5.qXlXXX",
"XXkXmXz.= N l c N x c x c N = (.dXfXD.o : b k i : i z b x o b.aXzX[.< q w ' Q Q ! ' ! 3 , u.7X9X=XD [ 8.3.2.4.7.1.3.[ P 4.6XlXXX",
"XXjXmXz.= P n l p 7 l N N n = ^.zXzXS.* V N : ; ; ; r A r # b.aXzX[., 4 4 Q E < 2 Q E q < u.0X8X=XP { %.4.%.T T 7.{ 8.{ %.qXpX X",
"@XkXmXf.: N N c 7 7 p N c P 6 ^.aXfXS.> L k ; : ; ; : x L & b.zXvX].2 ! -.Q < E 2 E ' Q 4 u.8XwX-XK K 3.8.{ C D %.2.3.Z 5.qXeX].",
"XXcXmXd.= N c x i 7 p c N N = ^.pXzXS.X x f 7 ; : ; t x C = c.zXvX|.2 s E ! 0 0 2 E Q E < u.wXpX1XI [ 2.4.4.C I 5.[ <.C 4.6XuX X",
" XjXnXi.= F N c l x c l c N = ^.aXxXD.X i b r : ; : k m : X b.aXzX[.1 3 q >.Q E ! ' ! 2 1 p.pXjX-XP %.%.2.4.5.5.8.2.w.I 4.6XeX X",
" XwXvXf.+ l c l N N N x c 7 = (.aXfXD.o C v m b k A b j : # c.pXlX[., 0 E Q E ' E ! Q ! 1 p.pXaX<XI C I 3.[ 3.<.<.2.P C 7.qXpX].",
" XwXbXf.= k 8 N c N N c 8 k = ^.zXzXD.o r : : b v i k v ; $ x.iXaX[., q s 0 2 ! E 2 0 w < u.pXpX<XI K J %.7.<.2.7.C P b 6.tXeX'.",
"].wXzXf.$ p 7 k k l i 8 : p = `.lXzXF.o : : : z g - : ; r # x.uXaX/.< 0 2 0 2 E w 3 3 0 , p.jXaX<XP C K I I P P T C K C 6.4XeX|.",
" XwXzXd.+ k 8 7 7 8 i 7 8 p = ^.zXzXK.o r : ; - ; : ; - r # x.yXsX[., 0 0 0 0 3 2 4 0 3 < u.tXjX<XI P P C K P P C P K C 4.6XrX X",
" XtXbXi.% p 7 7 p 7 7 7 7 k = ^.sXzXK.X : ; > : : - ; ; r # c.uXpX[.1 0 3 3 3 3 2 0 3 q 1 u.7XuX-XI J K D K P K K K I C 4.6XjXXX",
" XpXbXd.+ l i 7 7 : i 7 7 p = `.aXbXK.o 7 : > ; : : : - r o Z.aXgX[., 4 3 3 3 3 3 3 3 4 , p.uX7X=XP C P K K C P P D P C 8.eXpX X",
" XpXbXd.= l p i p p p p p 8 6 B.4XbXF.X i : r : : : : : r * z.4X0X[.< q q 3 4 0 q q 4 q 2 *.&XiX-XI P I P P I I I P I C 4.%XjX].",
"{.eXbXr.. = = * * = * % * ; O b.7XbXD.  # # # $ # # O & * o 0.5XiX~.1 < , , 1 1 1 1 , < 1 ) ;XuX*XV z Z Z z Z z z Z V z V *XdX_.",
" X7XuX+XP.~.Y.Y.Y.Y.Y.Y.~.v.M.*XeXyX-XW.Q.Q.W.W.E.W.Q.^.S.x.%XyX9X;XG.H.G.~.G.~.I.H.~.V.l.).3XyX3X(.T.T.E.E.!.E.E.~.U.g.`.wXrX].",
"{.8X8X0XfXsXpXuXpXuXyXuXuX8XuXeXeXwXpXzXxXfXzXbXaXxXzXbXcXvXaX4X3X8X0XsXwXiX0XiXdXpXaX9X4XuXwX7XwXuXaXuXyXyXuXpXiX9X8X3XuXwX7X].",
"'.8X3XuX8XyXfXsXfXsXiXpXiXsXgXeXeXeXaXeX8XxXfXzXzXzXzXbXbXnXpXtXwXuXiX3XiXiX0X0XfX0X0XiXaXiXyXwXwXiX:XiXuX0X0X0X0X8X0XsXiXwXwX_.",
").8XuX}.g.F.(.^.E.E.~.E.!.T.T.,XyXaX1Xx.B.(.~.^.^.^.^.^.^.E.*XyXuX,XB.v.~.Y.G.Y.Y.H.Y.T.Y.oXuXyXwXP.v.(.~.T.H.~.T.~.!.T._.wXwX{.",
").8X-XU o * # X & & X & # &   W.fX4Xi.. 5 @ @ O O @ O O + . x.iXwXM.o * o X & # $ # o $   5.iXrX^.; r ; ; - : r - : : $ I 5XwX].",
").8X2X9.$ : r z g h k i : 7 * ^.zX7XM.+ 7 9 8 M l x l 9 8 + x.yX3XW.- ; i f U D d a b : * w.7X7X].b x b z b { A x z b i [ 5XwX'.",
").4XxXh.o k h g j j v g g ; $ ^.sXfXD.@ 8 8 D M z G M 8 6 + x.0XaX|.O k a H M F a _ F i * 9.3X9X-Xx k P D D _ / C G C r _ ,XyX'.",
").7XaXr.# g j j h g j j g z # E.yXsXA.@ m m x M S S l N 8 O k.9XyX'.& b &.V H F S D d H o w.3X9X&Xb k P ( / H F G *.k r [ 5X7X_.",
"{.8XgXr.# Z j g ; ; : j v g * T.uXgXA.O A G M / s / S F A + v.9XiX_.% d f F F f H H A F 7 y.3X3X&Xx i D D F A F / F J i [ 6XrX'.",
").7XgXr.& h j g ; ; > j j z - T.0XfXA.+ m m F s 5 s S l m + x.yXuX_.$ f d / a * i G A U ; y.9X9X&Xx V *./ A k k G G &.C _ qXpX|.",
"_.8XgXr.& g L g = - ; j v : $ T.0XsXA.+ A m / ! 9 s / F m @ M.iXdX_.- _ D G A : a S s d = w.8X9X&Xz D I F F x b F / F i $.6XpX X",
").8XgXq.# z h Z j r v L g g # T.0XsXD.O m F m d / / l M m O x.uXaX].# f H d G G { H G A % y.3X9X*Xz k A ( F F G G G J : Y 4XpX].",
"{.8XuXr.$ r g h v L v h h t & T.9XaXB.@ p p n F m A N n 8 O x.iXpX`.X x V U m d D d C F # 9.wX9X=Xl z N &.H ( A / &.V r _ 5XwX_.",
"{.7X0Xa.X r r r g g g r ; r $ E.yXuXG.O 9 8 m N p M c 6 8 O M.pXaX'.* ; x F d A U A V - # 9.7X9X-Xz z V C b F { b a C : $.4X7X].",
"].wXfXi.X r ; r : r ; r ; r $ !.uXfXV.O 8 5 5 8 8 8 5 5 6 O M.zXzX].X : : ; a i A ; ; r # 9.rXpX-Xv k k k i C b k k z k [ ,XeX|.",
"_.7XzXr.# : ; ; ; : - - ; r # (.iXgXD.@ 8 5 5 6 5 5 5 5 8 O M.vXzX].# : ; ; = ; - : ; : $ 9.pXpX-Xx k z k k k k x i z 7 $.5X7X].",
"{.7XfXs.X r ; : - ; > : : : # E.pXdXF.@ 6 5 5 5 5 6 5 6 6 + M.zXvX X# : : ; ; : : ; : : # t.pXpX1Xl k k x k x k k k k g Y ,X7X].",
"{.wXbXs.o r : ; ; : ; ; : : $ (.sXgXA.O 8 5 5 6 6 5 5 6 8 @ B.zXfX].# : ; : ; ; - : - r # t.aXpX<Xz k k k k z k k k x : _ 4X7X].",
" XwXlXi.$ r : r : t r r r : - S.7XfXG.O 8 8 6 6 8 6 6 6 9 % f.4XzX'.* r r t : r i : : : * y.,XzX-Xb z z x z x k x x c k _ $X7X'.",
" X7XxXw.  $ # # $ X # X # * o v.7XfXM.  + O + + + + + + % . 0.>XsX`.  $ X X X X X X X * o T 1XzX-X: - : ; ; : : ; : : > z #X9X'.",
" XwXaX_.v.b.B.c.M.c.B.B.S.d.z.&XiXuX&Xx.b.M.B.M.M.M.M.Z.g.i.].0X9X-XM.B.B.S.B.B.S.S.L.v.r.^.pXtXwXF.S.Z.Z.Z.Z.B.B.B.c.0.A.3X8X'.",
" XuXpXuXiXiXuXuX0X0XpXfXxXwXaXpXwXeX0XsXsXuXiXgXuXgXfXsX8X8X0X8X7X7XgXfXzXzXbXbXbXvXbXpXpXvXeXpXpXfXxXvXzXzXdXyX9X9X9X>X9X>X3X'.",
"{.rXrXdXwXyXuX0XuX0XiXaXzXxXzXpXuXwX0XeX7XlXuXaXsXaXiXuX0X0X9X7X7X8XuXqXzXzXzXbXvXzXvXzXvXlXpXpXpXjXqXvXzXcXlXuX7X3X9X9X9X>X>X).",
" XeXzX-XB._..X].].].]. X{..X X3XrXsX,XF.!.$X+XOX+X+X.X.X}.].-X9X8X8XU.F.oXXX X.X.X XoXoX X1XjXpXaX_.H.=X$X$X#X}.#X#X#X}.&X3X>X).",
"{.rX4X&.+ ; = * = = = % = = O (.bXqXj.r K Z Z x Z V Z z Z r Z.gX8XA.o - $ & $ - X * # *   9.dXjX_.u  .W W W y y W W W u O.:X3X/.",
"{.pX6X0.* l p i 7 l l i i p * (.bXqXS.Z P J C I j.{ C C P Z Z.0X3XU.* : ; ; t $.D = ; i $ 0.pXrX+Xo.| | ..| +.#.| | | ..#.:X9X/.",
"{.eXnXf.$ i n 7 ) ,.l n l p * `.fXbXQ.h { j.[ a.a.4.%.a.{ z Z.uXsX Xo i _ K k e.D r U k # t.pXzX5XX.} o.#.;.@.=.:.o.o.W #.>X3X/.",
"XXrXbXd.$ i ] ] s ` B ,.B i = (.zXxXR.a I h.7.4.P 7.a.q.{ z S.dXsX_.* ; T <.F C D 1.8.x # 0.lXcX,XX.} O.#.=.o.O.#.@.+.W @.5X9X/.",
"XXpXbXd.% i m ^ ^ n ) ) p p % (.fXfXW.r I a.[ Z C C Y 7.C z S.dXfX_.# 7 k { D b J A V ; # 9.lXlX,X....:.=. .}  .| ;.;.y @.,XrX_.",
" XhXmXd.5 ` ] ^ 8 ; B ^ ] B * (.uXsXU.{ j.Y P P P K P a.j.C Z.dXfX_.% 8.{ V k * : P 1.<.i t.lXzX,X..#.#.o.} .... .O.@.} #.6XrX X",
" XpXnXd.O ) ) B l 7 B ^ ` n ; ~.0X0XU.C s.a.P J P K I %.a.C Z.uXgX_.; A 1.P z - r I A 4.; t.cXlX<X....:.O. .| | } #.@...#.6XdX{.",
"XXtXbXd.$ 7 ^ ` B B ) ) n i % E.8X0XU.h J 5.{ D J V %.a.z Z S.gXgX_.# - x A I C D T K = # t.lXaX:X....;.#.} |  .X.;.;.y @.qXlX X",
" XrXzXd.$ l ` ` ^ ` s ,.B i = T.8XiXU.h { j.h.y.[ w.7.j.I Z S.dXsX_.# i 4.2.D H { G 8.k $ 9.jXpX:XX. .O.@.:.O.@.=.@...W @.6XjXXX",
"XXrXzXi.$ l 7 p B ] k 7 p i = Y.0XzXU.z { 4.{ %.j.7.{ w.K z S.dXdX_.# r A t i e.v r F z # t.jXuX=XX. ...o.=.#.@.=.o.X. .@.6XpX X",
"XXrXxXh.% 7 7 : l 8 : i 7 i = !.dXzXU.z I C C [ s.C C C K z F.dXsX_.# : - ; r U i - * : # 9.aXjX=X|  ...}  .O.} } } ..W @.,XjX|.",
" XrXbXh.$ i i 7 7 7 7 7 7 i * `.dXbXR.z I P K C C C I P P z L.dXzX_.# r ; t = ; ; : : : # 9.pXpX:XX. ...X.| } } ......} @.5XrX{.",
"XXrXbXd.$ i : i : i 7 : i i % (.zXbXR.h K K K D P P I P P h F.dXdX_.# : ; - ; : - : ; : # 9.jXzX,X.. ...} | ..| ..| X. .#.,XuX{.",
" XwXnXd.$ i 7 7 7 7 7 i 6 i % (.zXxXW.z I K K P I C K P I z F.vXdX_.$ ; : : ; : ; ; ; r # t.zXzX,XX.}  .....} | .. . .y @.2X7X_.",
"{.rXbXf.% p i i i i i i i i t P.eXbXR.h I I I P P P I P I C v.wXzX].* r r t r t r t r r - 5.,XdX:X....X...........X... .#.&XwX].",
"{.wXbXr.. % $ % % $ % $ % = X x.qXbXR.t V v b z Z Z z z C h d.4XbX_.  # # X # # # # # $ o U -XzX=Xy y y y y y y y y y  .W .XyX_.",
"].eXvX(.d.z.g.g.f.f.z.z.n.9.9.%XdXlX@Xn.b.v.v.v.v.v.v.b.f.w._.zXdX-Xf.d.d.d.d.g.d.d.g.r.$.K.dXeX2XJ.k.k.k.k.k.k.m.k.k.*.Z.4XtX].",
"].rXuXvXbXzXpXaXdXsXfXdXzX7XaXlXdXrXzXvXlXzXvXzXzXzXzXzXwXwXrXrXrXdXdXdXfXdXgXgXgXdXgX8XwXzXwXeX0XdXhXgXrXlXeXgXlXlXdX4XaXeX8X].",
"{.wXrXrXrXwX7XwXwXqXwXwXwXrXwXrXrXeXrXeXrXrXrXeXrXeXqX7X8XeXwXeXwXwX8X7X7XeXeX7X8X7X8X8X8XwXeX7XeX8X8XeX7X7X7X7XwXwXeXdXwXwXwX_.",
"U.{.XXXX X{.].)._.]._.{. X X X X X X X{.{. X X X X X{._.{._. X X X).'.{.{.{._.{.{.{._.{._.{.).{.{.{.{.{._._.{.{.{. X X{.{.{.].H."
};
